<svg width="32" height="32" viewBox="0 0 32 32" fill="none" xmlns="http://www.w3.org/2000/svg">
<path d="M31.3169 19.8596C25.8376 22.8572 18.6967 21.9276 13.9103 17.1412C9.20075 12.4317 8.22519 5.44272 11.0504 0C4.63643 2.08445 0 8.11064 0 15.2197C0 24.0563 7.16344 31.2197 16 31.2197C23.223 31.2197 29.3281 26.4335 31.3169 19.8596Z" fill="black" style="mix-blend-mode:overlay"/>
<path fill-rule="evenodd" clip-rule="evenodd" d="M14.3289 3.18268C18.0529 2.36138 21.881 3.47634 24.5692 6.16451C27.2577 8.8531 28.3723 12.6808 27.551 16.4048C27.3682 17.2375 26.5477 17.6534 25.8339 17.4905C25.0562 17.3128 24.5645 16.541 24.7359 15.7654C25.3435 13.0091 24.5222 10.1796 22.5381 8.19555C20.554 6.21147 17.7245 5.39017 14.9682 5.99779C14.1922 6.16874 13.4204 5.67706 13.2431 4.89976C13.0658 4.12246 13.5533 3.35405 14.3289 3.18268ZM14.3378 10.6904C14.1182 9.92744 14.5599 9.13279 15.3177 8.91065C17.1702 8.37327 19.1581 8.8768 20.5071 10.2257C21.856 11.5747 22.36 13.563 21.8234 15.4155C21.603 16.1733 20.8092 16.6168 20.0437 16.3955C19.2821 16.1746 18.8437 15.3783 19.0638 14.6158C19.3096 13.7699 19.0845 12.8661 18.476 12.2576C17.868 11.6496 16.9637 11.4241 16.1175 11.6703C15.355 11.8904 14.5586 11.452 14.3378 10.6904Z" fill="black" style="mix-blend-mode:overlay"/>
</svg>
