<svg width="32" height="32" viewBox="0 0 32 32" fill="none" xmlns="http://www.w3.org/2000/svg">
<path d="M8 8.0013C8 7.64768 8.14048 7.30854 8.39052 7.05849C8.64057 6.80844 8.97971 6.66797 9.33333 6.66797H12C12.3536 6.66797 12.6928 6.80844 12.9428 7.05849C13.1929 7.30854 13.3333 7.64768 13.3333 8.0013V24.0013C13.3333 24.3549 13.1929 24.6941 12.9428 24.9441C12.6928 25.1942 12.3536 25.3346 12 25.3346H9.33333C8.97971 25.3346 8.64057 25.1942 8.39052 24.9441C8.14048 24.6941 8 24.3549 8 24.0013V8.0013ZM18.6667 8.0013C18.6667 7.64768 18.8071 7.30854 19.0572 7.05849C19.3072 6.80844 19.6464 6.66797 20 6.66797H22.6667C23.0203 6.66797 23.3594 6.80844 23.6095 7.05849C23.8595 7.30854 24 7.64768 24 8.0013V24.0013C24 24.3549 23.8595 24.6941 23.6095 24.9441C23.3594 25.1942 23.0203 25.3346 22.6667 25.3346H20C19.6464 25.3346 19.3072 25.1942 19.0572 24.9441C18.8071 24.6941 18.6667 24.3549 18.6667 24.0013V8.0013Z" stroke="white" stroke-width="2.66667" stroke-linecap="round" stroke-linejoin="round"/>
<path d="M12.0003 5.33398H9.33366C8.62641 5.33398 7.94814 5.61494 7.44804 6.11503C6.94794 6.61513 6.66699 7.29341 6.66699 8.00065V24.0007C6.66699 24.7079 6.94794 25.3862 7.44804 25.8863C7.94814 26.3864 8.62641 26.6673 9.33366 26.6673H12.0003C12.7076 26.6673 13.3858 26.3864 13.8859 25.8863C14.386 25.3862 14.667 24.7079 14.667 24.0007V8.00065C14.667 7.29341 14.386 6.61513 13.8859 6.11503C13.3858 5.61494 12.7076 5.33398 12.0003 5.33398ZM22.667 5.33398H20.0003C19.2931 5.33398 18.6148 5.61494 18.1147 6.11503C17.6146 6.61513 17.3337 7.29341 17.3337 8.00065V24.0007C17.3337 24.7079 17.6146 25.3862 18.1147 25.8863C18.6148 26.3864 19.2931 26.6673 20.0003 26.6673H22.667C23.3742 26.6673 24.0525 26.3864 24.5526 25.8863C25.0527 25.3862 25.3337 24.7079 25.3337 24.0007V8.00065C25.3337 7.29341 25.0527 6.61513 24.5526 6.11503C24.0525 5.61494 23.3742 5.33398 22.667 5.33398Z" fill="white"/>
</svg>
