<svg width="25" height="24" viewBox="0 0 25 24" fill="none" xmlns="http://www.w3.org/2000/svg">
<path d="M15.5 8.00022C16.121 8.46595 16.625 9.06987 16.9721 9.76415C17.3193 10.4584 17.5 11.224 17.5 12.0002C17.5 12.7764 17.3193 13.542 16.9721 14.2363C16.625 14.9306 16.121 15.5345 15.5 16.0002M6.5 15.0002H4.5C4.23478 15.0002 3.98043 14.8949 3.79289 14.7073C3.60536 14.5198 3.5 14.2654 3.5 14.0002V10.0002C3.5 9.735 3.60536 9.48065 3.79289 9.29311C3.98043 9.10557 4.23478 9.00022 4.5 9.00022H6.5L10 4.50022C10.0874 4.33045 10.2326 4.19754 10.4095 4.12551C10.5863 4.05348 10.7831 4.04708 10.9643 4.10746C11.1454 4.16784 11.299 4.29103 11.3972 4.45476C11.4955 4.61849 11.5319 4.81196 11.5 5.00022V19.0002C11.5319 19.1885 11.4955 19.3819 11.3972 19.5457C11.299 19.7094 11.1454 19.8326 10.9643 19.893C10.7831 19.9534 10.5863 19.947 10.4095 19.8749C10.2326 19.8029 10.0874 19.67 10 19.5002L6.5 15.0002Z" stroke="white" stroke-width="2" stroke-linecap="round" stroke-linejoin="round"/>
<path d="M15.5 8.00022C16.121 8.46595 16.625 9.06987 16.9721 9.76415C17.3193 10.4584 17.5 11.224 17.5 12.0002C17.5 12.7764 17.3193 13.542 16.9721 14.2363C16.625 14.9306 16.121 15.5345 15.5 16.0002M18.2 5.00022C19.244 5.84387 20.086 6.91034 20.6645 8.12154C21.2429 9.33273 21.5431 10.658 21.5431 12.0002C21.5431 13.3425 21.2429 14.6677 20.6645 15.8789C20.086 17.0901 19.244 18.1566 18.2 19.0002M6.5 15.0002H4.5C4.23478 15.0002 3.98043 14.8949 3.79289 14.7073C3.60536 14.5198 3.5 14.2654 3.5 14.0002V10.0002C3.5 9.735 3.60536 9.48065 3.79289 9.29311C3.98043 9.10557 4.23478 9.00022 4.5 9.00022H6.5L10 4.50022C10.0874 4.33045 10.2326 4.19754 10.4095 4.12551C10.5863 4.05348 10.7831 4.04708 10.9643 4.10746C11.1454 4.16784 11.299 4.29103 11.3972 4.45476C11.4955 4.61849 11.5319 4.81196 11.5 5.00022V19.0002C11.5319 19.1885 11.4955 19.3819 11.3972 19.5457C11.299 19.7094 11.1454 19.8326 10.9643 19.893C10.7831 19.9534 10.5863 19.947 10.4095 19.8749C10.2326 19.8029 10.0874 19.67 10 19.5002L6.5 15.0002Z" stroke="white" stroke-width="2" stroke-linecap="round" stroke-linejoin="round"/>
</svg>
